<svg width="145" height="87" viewBox="0 0 145 87" fill="none" xmlns="http://www.w3.org/2000/svg">
<path d="M140.956 0.615997H4.04401C2.29275 0.615997 0.860291 2.04854 0.860291 3.79971V83.3997C0.860291 85.151 2.29283 86.5834 4.04401 86.5834H140.956C142.707 86.5834 144.14 85.1509 144.14 83.3997V3.79971C144.14 2.04845 142.707 0.615997 140.956 0.615997ZM98.4496 64.296V22.904H137.772V64.296H98.4496ZM52.9184 64.296V22.904H92.2408V64.296H52.9184ZM7.22801 64.296V22.904H46.5504V64.296H7.22801ZM128.857 16.536V6.98343H137.773V16.536H128.857ZM122.489 16.536H113.574V6.98343H122.489V16.536ZM107.366 16.536H98.4508V6.98343H107.366V16.536ZM92.0819 16.536H83.167V6.98343H92.0819V16.536ZM76.9582 16.536H68.0433V6.98343H76.9582V16.536ZM61.6744 16.536H52.7595V6.98343H61.6744V16.536ZM46.5507 16.536H37.6358V6.98343H46.5507V16.536ZM31.2669 16.536H22.352V6.98343H31.2669V16.536ZM16.1432 16.536H7.22829V6.98343H16.1432V16.536ZM7.22829 70.664H16.1432V80.2166H7.22829V70.664ZM22.5121 70.664H31.427V80.2166H22.5121V70.664ZM37.6358 70.664H46.5507V80.2166H37.6358V70.664ZM52.9195 70.664H61.8345V80.2166H52.9195V70.664ZM68.0433 70.664H76.9582V80.2166H68.0433V70.664ZM83.327 70.664H92.242V80.2166H83.327V70.664ZM98.4508 70.664H107.366V80.2166H98.4508V70.664ZM113.735 70.664H122.649V80.2166H113.735V70.664ZM128.858 70.664H137.773V80.2166H128.858V70.664Z" fill="black"/>
</svg>
