<svg width="122" height="128" viewBox="0 0 122 128" fill="none" xmlns="http://www.w3.org/2000/svg">
<path d="M37.3171 62.7709C37.5564 62.8807 37.8055 62.9312 38.0521 62.9312C38.7218 62.9312 39.3643 62.5489 39.6615 61.9002C39.7664 61.6721 39.8971 61.5007 40.0155 61.3046C40.0044 61.4032 39.9699 61.4957 39.9699 61.5981C39.9699 63.8192 42.8125 65.4927 46.5825 65.4927C48.5076 65.4927 50.1835 65.0525 51.37 64.3298C50.7422 66.7642 47.9404 69.295 45.2012 70.0988C43.4142 70.6242 41.066 70.6341 40.0513 67.6927C39.8922 67.229 39.3878 66.9861 38.9266 67.1452C38.4654 67.3042 38.2211 67.8087 38.379 68.2699C39.2435 70.7808 41.0909 72.1361 43.4996 72.1361C44.189 72.1361 44.9264 72.0251 45.6985 71.7982C49.9309 70.5539 54.1154 66.0945 53.1683 62.2109C53.1572 62.169 53.1313 62.1345 53.114 62.0962C53.1473 61.9334 53.1942 61.7731 53.1942 61.6029C53.1942 60.9308 52.908 60.3179 52.4406 59.7765C53.2792 59.8455 54.1093 59.8825 54.9109 59.8467C55.4646 59.8196 55.9172 59.7074 56.3254 59.5619C56.5129 63.5045 56.0159 67.4153 55.5546 70.9424C55.4683 71.6022 55.3832 72.2521 55.3055 72.8922C54.6235 73.0192 53.8959 73.3867 53.1769 74.0182C53.1658 74.0293 53.1535 74.0416 53.1436 74.0515C52.7514 74.3438 49.1233 77.268 46.8603 86.8268C46.7468 87.3029 47.0428 87.7777 47.5163 87.8912C47.5854 87.9084 47.6545 87.9158 47.7211 87.9158C48.1219 87.9158 48.4845 87.642 48.5807 87.2351C49.3021 84.1902 50.1617 81.8866 50.9904 80.1451C52.2027 82.0603 56.2884 82.233 57.5835 82.2404C58.6281 82.7818 59.8626 83.0691 61.0984 83.0691C62.3341 83.0691 63.5661 82.7805 64.6119 82.2404C65.9056 82.233 69.9914 82.0603 71.205 80.1451C72.0362 81.8852 72.8958 84.19 73.6148 87.2351C73.7122 87.6396 74.0748 87.9158 74.4744 87.9158C74.541 87.9158 74.6088 87.9084 74.6779 87.8912C75.1539 87.7802 75.4474 87.3029 75.334 86.8268C73.0709 77.2654 69.4415 74.3413 69.0506 74.0515C69.0383 74.0404 69.0272 74.028 69.0148 74.0182C68.2934 73.3892 67.5682 73.0229 66.8875 72.8934C66.8073 72.2546 66.7234 71.6047 66.6359 70.9436C66.1759 67.4165 65.6776 63.5057 65.8651 59.5606C66.2721 59.7061 66.7247 59.8183 67.2772 59.843C68.0776 59.88 68.9088 59.843 69.7486 59.7727C69.28 60.3141 68.9939 60.9258 68.9939 61.5992C68.9939 61.7706 69.0395 61.9321 69.0741 62.0937C69.058 62.1332 69.0321 62.1665 69.021 62.2072C68.0714 66.092 72.2558 70.5527 76.4908 71.7945C77.2628 72.0226 77.9991 72.1324 78.6885 72.1324C81.097 72.1324 82.9443 70.7758 83.8091 68.2661C83.9681 67.8049 83.7227 67.3005 83.2615 67.1414C82.8002 66.9835 82.2958 67.2277 82.1367 67.689C81.1242 70.634 78.7772 70.6254 76.9868 70.0975C74.2477 69.2934 71.4445 66.7617 70.8181 64.3247C72.0045 65.0499 73.6805 65.4901 75.6081 65.4901C79.3771 65.4901 82.2185 63.8153 82.2185 61.5955C82.2185 61.4943 82.1815 61.4031 82.1729 61.3032C82.2913 61.4993 82.4245 61.6707 82.5268 61.8988C82.824 62.5475 83.4641 62.9311 84.1363 62.9298C84.3817 62.9298 84.6308 62.878 84.87 62.7695C85.7592 62.3625 86.1477 61.3143 85.7419 60.4251C83.0251 54.4919 77.0857 55.2837 72.3092 55.9164C70.5518 56.1495 68.9005 56.3702 67.4403 56.3049C67.3305 56.2999 66.9717 56.2728 66.8767 56.1421C66.6855 55.8806 66.6942 55.0987 66.8348 54.5758C67.0925 53.6385 66.5449 52.668 65.6101 52.4053C64.6753 52.1476 63.6936 52.6902 63.4297 53.6287C63.352 53.9086 62.7046 56.401 64.0119 58.2116C64.0526 58.2683 64.1179 58.3288 64.166 58.3867C63.8059 62.8547 64.3744 67.2428 64.8875 71.1668C65.218 73.6901 65.5275 76.0727 65.5275 78.0867C65.5275 80.1894 63.3003 81.2918 61.099 81.2918C58.8978 81.2918 56.668 80.1905 56.668 78.0867C56.668 76.0728 56.9787 73.69 57.3092 71.1643C57.8223 67.2375 58.3908 62.8509 58.0319 58.3842C58.0776 58.3275 58.1429 58.2695 58.1824 58.2128C59.4909 56.4036 58.8459 53.9099 58.7682 53.6324C58.508 52.6976 57.5411 52.1574 56.6026 52.409C55.6653 52.6655 55.1103 53.6336 55.3595 54.5746C55.4988 55.0975 55.5075 55.8806 55.3175 56.1433C55.2201 56.2765 54.86 56.3024 54.7515 56.3074C53.2999 56.3764 51.6412 56.1532 49.8863 55.9189C45.1111 55.2837 39.1716 54.4945 36.4536 60.4276C36.0417 61.3143 36.4314 62.3638 37.3181 62.7708L37.3171 62.7709ZM75.6101 62.8548C74.9996 62.8548 74.5051 62.3602 74.5051 61.7498C74.5051 61.1393 74.9996 60.6448 75.6101 60.6448C76.2206 60.6448 76.7151 61.1393 76.7151 61.7498C76.7151 62.359 76.2206 62.8548 75.6101 62.8548ZM70.7658 61.5956C70.7658 60.8495 71.9115 60.0392 73.6368 59.6717C73.0856 60.1946 72.7365 60.9309 72.7365 61.7485C72.7365 62.3762 72.9449 62.9546 73.2903 63.4282C71.766 63.0311 70.7658 62.2899 70.7658 61.5956ZM77.9297 63.4295C78.2725 62.9559 78.4834 62.3787 78.4834 61.7498C78.4834 60.9309 78.1356 60.1959 77.5831 59.673C79.3072 60.0405 80.4529 60.852 80.4529 61.5969C80.4529 62.2887 79.454 63.0311 77.9297 63.4295ZM52.4161 78.998C52.3187 77.9793 53.1635 76.3748 54.3413 75.3414C54.6138 75.1021 54.8592 74.943 55.0874 74.8222C54.9739 75.9691 54.8987 77.0679 54.8987 78.0892C54.8987 78.9364 55.1158 79.6739 55.4783 80.3066C53.8517 80.0698 52.4729 79.5899 52.4161 78.998ZM67.8492 75.3414C69.0245 76.3736 69.873 77.9793 69.7743 78.998C69.7176 79.5936 68.3561 80.0672 66.7159 80.3027C67.0784 79.6701 67.2942 78.9326 67.2942 78.0878C67.2942 77.0654 67.2178 75.9703 67.1056 74.8221C67.3312 74.9442 67.5779 75.1046 67.8492 75.3414ZM46.583 62.8545C45.9725 62.8545 45.478 62.36 45.478 61.7495C45.478 61.1391 45.9725 60.6445 46.583 60.6445C47.1935 60.6445 47.688 61.1391 47.688 61.7495C47.688 62.3588 47.1935 62.8545 46.583 62.8545ZM41.7387 61.5954C41.7387 60.8492 42.8844 60.039 44.6122 59.6702C44.0609 60.1931 43.7119 60.9294 43.7119 61.7495C43.7119 62.3772 43.9203 62.9556 44.2656 63.4292C42.7401 63.0309 41.7387 62.2897 41.7387 61.5954ZM48.9026 63.4292C49.2454 62.9557 49.4563 62.3785 49.4563 61.7495C49.4563 60.9306 49.1085 60.1956 48.556 59.6727C50.2813 60.0403 51.427 60.8505 51.427 61.5966C51.4258 62.2885 50.4269 63.0309 48.9026 63.4292Z" fill="black"/>
<path d="M61.1125 92.7259C55.5382 92.6457 48.7182 96.1309 45.5572 100.733C45.281 101.137 45.3821 101.687 45.7854 101.962C45.9371 102.068 46.1122 102.117 46.2861 102.117C46.5673 102.117 46.8447 101.983 47.0162 101.734C48.2346 99.9601 50.071 98.3888 52.1491 97.1506C53.3564 97.4392 57.2794 98.3012 61.0964 98.3012C64.8591 98.3012 68.7253 97.4614 69.9907 97.1605C72.102 98.4048 73.9715 99.9809 75.1741 101.731C75.3455 101.98 75.6218 102.115 75.903 102.115C76.0756 102.115 76.2495 102.065 76.4037 101.959C76.8069 101.683 76.9081 101.132 76.6318 100.731C73.4709 96.1309 66.6264 92.6185 61.1125 92.7259ZM61.0952 96.5378C58.7915 96.5378 56.3952 96.1925 54.6723 95.8731C56.8009 94.9802 59.032 94.4548 61.0779 94.4955C63.0745 94.4548 65.3091 94.9876 67.4515 95.8854C65.7323 96.1999 63.368 96.5378 61.0952 96.5378Z" fill="black"/>
<path d="M90.3634 84.6057C89.9096 84.4343 89.3966 84.6698 89.2288 85.1286C88.8243 86.2175 88.3816 87.7788 87.8661 89.5855C86.8092 93.2952 84.6114 101.008 82.8431 101.244C82.5323 101.295 82.018 100.827 81.5222 100.005C72.3343 84.7649 65.9042 84.7684 61.2969 84.7709V84.8104C61.2316 84.7943 61.1699 84.7709 61.0984 84.7709H60.8998C56.232 84.7462 49.8609 84.7623 40.6708 100.005C40.1762 100.826 39.6768 101.294 39.3524 101.244C37.5839 101.008 35.3864 93.2952 34.3319 89.5868C33.8152 87.78 33.3724 86.2175 32.9692 85.1273C32.799 84.6673 32.2896 84.433 31.8321 84.6044C31.3745 84.7746 31.139 85.2815 31.3092 85.7391C31.689 86.7664 32.1256 88.2968 32.6312 90.0703C34.7228 97.4107 36.4126 102.634 39.1195 102.996C39.2181 103.01 39.3143 103.016 39.4118 103.016C40.4144 103.016 41.348 102.312 42.1878 100.917C50.8615 86.5309 56.4837 86.5789 60.9024 86.5382H61.1022C61.1725 86.5382 61.2367 86.5135 61.302 86.4987V86.5382C65.8022 86.5838 71.3408 86.5332 80.0144 100.917C80.8543 102.312 81.7854 103.016 82.7905 103.016C82.8854 103.016 82.9829 103.011 83.0803 102.996C85.7885 102.636 87.4769 97.4107 89.5711 90.0703C90.0767 88.2969 90.5121 86.7664 90.8919 85.7391C91.0547 85.2828 90.8216 84.7734 90.364 84.6057H90.3634Z" fill="black"/>
<path d="M118.099 95.9651C114.701 89.7891 109.566 80.4544 107.04 64.2011C100.214 20.2947 78.4361 0.294189 61.0945 0.294189C43.7498 0.294189 21.9743 20.2941 15.1454 64.2011C12.6185 80.4506 7.48432 89.7875 4.08692 95.9651C1.54763 100.581 -0.129443 103.631 0.897576 106.73C1.74975 109.307 4.24951 111.301 9.80672 113.838C15.5278 116.451 21.4894 117.248 27.213 117.248C31.8082 117.248 36.2295 116.735 40.2694 116.235C41.1006 117.127 41.954 117.91 42.8345 118.535C43.1922 118.789 43.6497 119.148 44.196 119.575C47.6541 122.279 54.0893 127.315 61.0978 127.315C68.1038 127.315 74.5403 122.28 77.9983 119.576C78.5447 119.148 79.001 118.789 79.3598 118.535C80.2416 117.91 81.0938 117.126 81.925 116.235C85.9627 116.736 90.3865 117.248 94.9814 117.248C100.705 117.248 106.667 116.45 112.388 113.838C117.946 111.301 120.445 109.307 121.297 106.73C122.315 103.632 120.639 100.584 118.099 95.9651ZM18.6395 64.7476C25.5877 20.0551 47.8358 3.83366 61.0936 3.83366C74.3523 3.83366 96.5956 20.0548 103.548 64.7476C104.628 71.6946 106.166 77.4033 107.849 82.1798C107.355 81.6384 106.858 81.1031 106.366 80.5679C103.003 76.9198 99.8256 73.4741 97.3665 69.4648C93.8283 63.692 91.3493 58.3507 89.1618 53.6397C83.2655 40.9419 79.0046 31.7679 61.0954 31.7679C43.1859 31.7679 38.925 40.941 33.029 53.6384C30.84 58.352 28.3599 63.6933 24.8217 69.4661C22.3626 73.4779 19.1856 76.9236 15.8226 80.5691C15.3293 81.1031 14.8348 81.6408 14.3414 82.181C16.0199 77.4033 17.5591 71.6946 18.6395 64.7476ZM40.4619 46.5732C44.3197 45.9159 47.4544 42.9734 50.7498 39.8728C52.2865 38.4286 53.8613 36.945 55.5449 35.6735C56.9163 35.4749 58.4356 35.3688 60.0722 35.3355C57.7451 36.7711 55.5783 38.6505 53.4583 40.5104C49.1236 44.3138 44.9943 47.9259 39.6878 48.0036C39.9443 47.5189 40.1996 47.033 40.4623 46.573L40.4619 46.5732ZM41.8259 44.3508C44.322 40.5708 47.2559 37.9194 51.7918 36.5085C51.0259 37.1966 50.2736 37.8934 49.5337 38.5853C46.9734 40.9988 44.5133 43.3023 41.8259 44.3508ZM11.2733 110.622C6.90255 108.626 4.73707 107.083 4.25245 105.619C3.71968 104.012 5.05285 101.547 7.08649 97.8483C10.103 91.9902 14.3318 87.4026 18.4225 82.9652C20.2786 80.9513 22.1543 78.8881 23.9204 76.7226C25.536 83.6263 30.4112 102.455 37.6748 112.986C29.4896 113.936 19.9095 114.563 11.2732 110.621L11.2733 110.622ZM77.3113 115.649C76.9191 115.925 76.4147 116.319 75.8153 116.79C72.6927 119.232 66.8815 123.778 61.0951 123.778C55.3062 123.778 49.4939 119.232 46.3712 116.789C45.773 116.32 45.2674 115.928 44.8777 115.65C34.1655 108.057 26.8722 73.7488 26.8018 73.4015C26.7746 73.2757 26.7068 73.1721 26.655 73.0599C27.0534 72.4778 27.4677 71.913 27.8365 71.3112C31.482 65.3656 34.0065 59.9259 36.2351 55.127C37.1317 53.197 37.9654 51.4123 38.7929 49.7488C39.0371 49.7612 39.2813 49.7784 39.5193 49.7784C45.5747 49.7784 50.1661 45.7493 54.6218 41.8388C57.6926 39.1441 60.6352 36.5913 63.918 35.3888C77.1695 36.2175 80.392 43.1535 85.9527 55.1282C88.1824 59.9267 90.707 65.3655 94.3513 71.3111C94.7213 71.9142 95.1369 72.4802 95.534 73.0599C95.4847 73.1733 95.4144 73.2757 95.3872 73.4015C95.3145 73.7468 88.0235 108.054 77.3113 115.647L77.3113 115.649ZM117.934 105.618C117.45 107.082 115.284 108.626 110.913 110.621C102.274 114.562 92.6982 113.938 84.508 112.986C91.7745 102.455 96.6469 83.6267 98.2624 76.7227C100.028 78.8883 101.907 80.9517 103.76 82.9644C107.851 87.4005 112.081 91.9881 115.096 97.8475C117.136 101.55 118.467 104.01 117.934 105.619L117.934 105.618Z" fill="black"/>
</svg>
