<svg width="147" height="118" viewBox="0 0 147 118" fill="none" xmlns="http://www.w3.org/2000/svg">
<path d="M37.8289 9.35448C51.6397 0.62891 67.7335 -1.76366 82.5845 1.4257C97.3221 4.59233 110.84 13.2564 119.708 26.662C123.458 24.6874 143.216 13.4252 146.303 18.1649C148.08 20.8886 140.847 28.3435 127.708 38.1862L126.072 39.4063C129.732 49.7515 130.275 60.7172 127.982 71.0671C124.754 85.6409 115.898 99.0031 102.181 107.733L101.855 107.938C88.0821 116.584 72.0485 118.944 57.2594 115.765C53.5668 114.973 49.9457 113.832 46.4562 112.361C46.1682 112.296 45.8934 112.179 45.6482 112.011C39.5162 109.312 33.804 105.576 28.8163 100.865L27.1563 101.745C12.5088 109.46 2.55098 112.863 0.773473 110.131C-2.31352 105.386 16.3103 92.3961 19.6995 89.8586C11.0138 76.3326 8.6501 60.6228 11.8657 46.1254C15.1044 31.4964 24.0209 18.0786 37.832 9.35134L37.8289 9.35448ZM110.95 65.0463C109.858 65.736 108.392 65.4231 107.692 64.3481C106.992 63.2731 107.31 61.8289 108.402 61.1404L124.118 51.2087C123.702 48.2239 123.026 45.2587 122.085 42.3346C110.516 50.7246 95.5085 60.8566 78.8547 71.3875L78.4292 71.6527C61.626 82.2687 45.8623 91.5854 33.1727 98.5184C37.2951 102.201 41.9102 105.186 46.8318 107.439L62.0279 97.8386C63.1195 97.149 64.586 97.4618 65.2851 98.5368C65.9854 99.6118 65.6677 101.056 64.5761 101.744L52.203 109.562C54.1884 110.228 56.2078 110.786 58.2549 111.224C71.9284 114.162 86.7355 111.968 99.442 103.946L99.4705 103.928C107.768 98.685 114.146 91.6037 118.402 83.5721L106.96 90.8028C105.869 91.4924 104.402 91.1796 103.703 90.1045C103.003 89.0295 103.321 87.5854 104.412 86.8969L120.734 76.5841C121.008 76.412 121.306 76.3005 121.609 76.2485C122.318 74.2273 122.904 72.1693 123.368 70.0843C124.356 65.6143 124.777 61.0187 124.593 56.4187L110.952 65.0373L110.95 65.0463ZM87.8196 26.0856C86.728 26.7752 85.2615 26.4623 84.5624 25.3873C83.8621 24.3123 84.1798 22.8682 85.2715 22.1797L99.4318 13.231C93.933 9.77116 87.8811 7.32759 81.5887 5.97652C67.9053 3.03825 53.0884 5.23602 40.3791 13.2679C27.6698 21.2997 19.4664 33.6476 16.4841 47.1181C15.8927 49.791 15.5057 52.5052 15.3309 55.2428L27.9127 47.2902C29.0044 46.6006 30.4709 46.9135 31.17 47.9885C31.8703 49.0635 31.5526 50.5076 30.4609 51.1961L15.2649 60.7966C15.6387 70.0526 18.442 79.3369 23.8893 87.6947C25.6339 90.3763 27.5819 92.849 29.7002 95.1169C42.4613 88.1883 58.5973 78.6768 75.8883 67.749L76.3137 67.4838C93.415 56.6719 108.762 46.2846 120.397 37.8018C119.191 34.9752 117.721 32.2049 115.985 29.5374L115.966 29.5093C112.534 24.248 108.33 19.7691 103.593 16.1274L87.8257 26.0915L87.8196 26.0856ZM52.3343 68.2612C51.2427 68.9508 49.7762 68.6379 49.0771 67.5629C48.3768 66.4879 48.6945 65.0438 49.7861 64.3553L66.1078 54.0425C67.1995 53.3529 68.666 53.6658 69.3651 54.7408C70.0654 55.8158 69.7477 57.2599 68.656 57.9484L52.3343 68.2612ZM122.126 30.6501C122.906 32.0607 123.62 33.4853 124.273 34.9339L124.85 34.5009C147.927 17.2271 147.937 17.0495 122.127 30.65L122.126 30.6501ZM25.4326 97.4C24.3684 96.2124 23.3471 94.9793 22.3731 93.6888C-1.1965 111.331 -0.520506 111.07 24.9456 97.6552L25.437 97.3943L25.4326 97.4Z" fill="black"/>
</svg>
