<svg width="119" height="145" viewBox="0 0 119 145" fill="none" xmlns="http://www.w3.org/2000/svg">
<path d="M46.8312 54.9044C45.7971 54.965 42.4354 55.1669 40.4647 57.907C38.6959 60.3668 38.4334 64.3365 40.3436 65.9548C41.5706 66.9957 43.5245 66.5672 47.4303 65.7148C51.1195 64.9094 53.3819 64.3789 54.5169 62.3509C54.6549 62.103 55.5298 60.4867 54.9981 58.747C54.0773 55.7409 49.6794 54.7359 46.8315 54.9041L46.8312 54.9044ZM48.323 61.5604C46.2693 61.1633 44.8032 60.2615 44.0216 59.6951C46.4444 58.2044 48.2412 58.2448 49.1644 58.3861C49.3236 58.4108 49.4537 58.4377 49.5166 58.4523C51.4481 58.8718 52.7986 60.1482 53.6632 61.2497C52.712 61.5514 50.7436 62.0281 48.323 61.5604Z" fill="black"/>
<path d="M84.5475 74.8436C84.5721 71.9297 82.1583 69.841 80.5834 68.4771C79.934 67.914 77.9397 66.8933 73.978 64.8731C70.9294 63.3196 69.5879 62.6938 68.574 63.3118C67.7586 63.8076 67.5623 64.8585 67.4938 65.2332C67.1529 67.0626 68.279 68.1933 69.8964 71.1185C72.2575 75.3874 71.8279 76.5406 73.5003 77.485C74.0331 77.7856 73.9759 77.6117 77.9445 78.2051C81.4562 78.7311 82.1652 78.9656 82.9884 78.4451C84.4948 77.4951 84.5441 75.1689 84.5475 74.8436ZM72.8958 71.3014C70.9744 70.127 69.9391 68.5747 69.4725 67.7569C69.7461 67.6414 73.1401 66.2674 76.1991 68.2975C78.457 69.7961 79.0279 72.1516 79.1411 72.6811C78.2427 72.7775 75.5788 72.9379 72.8958 71.3014Z" fill="black"/>
<path d="M50.0731 69.319C48.5937 70.0279 48.2672 69.9976 47.3105 70.6403C46.1675 71.4086 44.4615 72.5538 44.4278 74.2442C44.402 75.5341 45.3061 76.8722 46.4704 77.3669C47.9173 77.9827 48.6621 76.8263 50.2526 77.2233C52.5341 77.792 52.2637 80.4838 54.3737 81.0426C56.4734 81.5978 57.5782 79.3624 60.1031 80.0376C61.4759 80.4055 61.4838 81.1795 63.1181 81.5126C63.4635 81.5832 65.8167 82.0611 66.8903 80.7308C67.6328 79.8099 67.3804 78.5021 67.2503 77.8482C66.8914 76.0412 65.948 75.8011 65.1281 74.0088C64.057 71.669 65.1551 70.9668 64.1276 68.839C63.8371 68.2356 62.7233 66.1976 60.5237 65.4763C58.3802 64.7742 56.2748 65.7769 54.6384 66.5565C52.7215 67.4717 52.6912 68.0662 50.0734 69.3191L50.0731 69.319Z" fill="black"/>
<path d="M49.7888 58.9301C49.1999 58.7787 48.5808 59.1814 48.4832 59.786C48.3901 60.3647 48.8062 60.9233 49.3839 61.0019C49.9167 61.0748 50.4337 60.7203 50.5549 60.1909C50.6839 59.6346 50.3328 59.0681 49.7888 58.9301Z" fill="black"/>
<path d="M75.178 68.7791C74.7506 68.5526 74.1764 68.7152 73.8567 69.0797C73.4697 69.5217 73.4271 70.2956 73.9161 70.7005C74.3648 71.074 75.0535 70.9641 75.418 70.5794C75.9104 70.0634 75.7691 69.0921 75.178 68.7791Z" fill="black"/>
<path d="M62.9256 106.073C63.1297 106.221 63.5851 106.504 64.1269 106.433C65.0904 106.308 65.5469 105.166 65.6882 104.813C65.8217 104.478 66.0449 103.772 65.8094 102.29C65.7163 101.707 65.4897 100.614 64.368 98.3259C64.0013 97.5766 63.4674 96.5582 62.7473 95.3838C62.5667 96.0479 62.2874 96.8555 61.8466 97.727C61.3766 98.6535 60.8573 99.3926 60.4053 99.949C60.1933 100.161 59.8568 100.183 59.6235 100.008C59.4059 99.8447 59.3296 99.5441 59.4429 99.2883C59.5506 98.7836 59.6403 98.1981 59.6829 97.5464C59.7379 96.7007 59.6975 95.9492 59.6235 95.3244C59.5966 95.0193 59.4934 94.3598 59.0223 93.7036C58.6465 93.1798 58.2001 92.8871 57.9421 92.7424C57.9713 93.0508 57.9858 93.6666 57.7021 94.3631C57.4015 95.1023 56.9237 95.5465 56.6814 95.7439C56.3449 95.5958 55.8962 95.4063 55.3601 95.2033C54.6848 94.9487 54.4594 94.8959 54.3393 94.6626C54.17 94.3362 54.41 94.0469 54.5199 93.4019C54.5839 93.0206 54.6052 92.5192 54.4605 91.9C54.4167 92.3038 54.3192 92.8243 54.1004 93.4019C53.9344 93.8382 53.7404 94.1983 53.5598 94.482C52.9934 94.4338 52.2071 94.3037 51.3378 93.9414C50.7142 93.6823 50.2139 93.3738 49.8359 93.1002C49.9761 92.7435 50.1365 92.2298 50.1959 91.5983C50.2487 91.0431 50.2374 90.2445 50.0748 90.2175C49.9514 90.1962 49.7753 90.6337 49.6553 90.9376C49.4747 91.3874 49.4377 91.6656 49.2953 92.1983C49.2358 92.4204 49.1394 92.7536 48.9947 93.1596C48.472 93.1047 47.8091 92.9891 47.0733 92.7401C46.3846 92.5057 45.8226 92.2197 45.3908 91.9606C45.3908 91.6521 45.4267 91.2326 45.5714 90.7593C45.7912 90.0426 46.1647 89.5401 46.4126 89.2574C46.112 89.217 45.8126 89.1766 45.5119 89.1363C45.5411 89.337 45.5983 89.9158 45.2719 90.517C45.042 90.9399 44.7257 91.1833 44.5518 91.2965C44.3589 91.356 43.8429 91.4861 43.2305 91.2965C42.6786 91.1261 42.3444 90.7896 42.2098 90.6359C42.3309 90.0549 42.4498 89.475 42.5698 88.894C42.332 88.7829 41.9608 88.6427 41.4897 88.5934C41.0377 88.5451 40.6597 88.5978 40.4095 88.6528C40.3994 89.2798 40.2951 90.4329 39.6277 91.6555C39.224 92.3969 38.7417 92.9274 38.367 93.2762C38.1517 92.8601 37.8858 92.2241 37.7658 91.4143C37.6166 90.4048 37.7591 89.5714 37.8869 89.0711C37.5942 89.0128 37.1567 88.9478 36.6262 88.95C33.8782 88.9691 32.0431 90.8254 31.4611 91.412C30.7354 92.1456 29.8852 93.0059 30.1106 93.8146C30.2486 94.3104 30.7331 94.5773 31.5519 95.0159C32.2148 95.3692 33.1346 95.7652 34.3146 96.0063C34.1732 95.81 33.9758 95.4859 33.8648 95.045C33.7784 94.7007 33.5687 93.8684 34.014 93.514C34.2809 93.302 34.7363 93.2986 35.0347 93.4837C35.4766 93.7585 35.4082 94.3373 35.6953 94.3844C35.9813 94.4315 36.1294 93.8718 36.5366 93.8752C36.7149 93.8752 36.7934 93.984 37.1972 94.2655C37.4978 94.4764 37.7547 94.6256 37.9173 94.7153C38.0104 94.5347 38.154 94.2622 38.3368 93.9358C38.9997 92.767 39.4304 92.0211 39.8387 92.0738C40.072 92.1041 40.2313 92.3856 40.2582 92.4339C40.4096 92.6997 40.3367 92.9857 40.3479 93.0945C40.4713 94.2061 40.3232 94.6368 40.4691 95.1965C40.662 95.9469 40.8078 96.5156 41.2509 96.879C42.285 97.7292 43.7465 96.4752 45.6344 97.0001C46.6573 97.285 47.3808 97.9715 47.8564 98.5615C48.3533 98.4639 50.4721 98.1016 52.4808 99.4027C53.6799 100.179 54.3046 101.202 54.5828 101.746C55.4397 100.763 55.737 99.9333 55.8435 99.3433C55.8884 99.092 55.9703 98.4987 56.3842 97.9019C56.5513 97.6608 56.825 97.2648 57.1043 97.3007C57.5944 97.3647 57.7795 98.7107 57.8244 99.0427C57.895 99.5553 57.9332 100.344 57.7032 101.324C58.2416 102.025 58.6017 102.155 58.8451 102.104C59.2455 102.022 59.3229 101.451 59.6863 101.443C60.025 101.436 60.0688 101.933 60.6476 102.163C60.9818 102.297 61.03 102.156 61.5483 102.284C61.9902 102.392 62.0822 102.526 62.569 102.704C62.7978 102.788 63.1399 102.89 63.5897 102.944C63.4663 103.473 63.3452 104.013 63.2296 104.564C63.1186 105.079 63.0187 105.58 62.9256 106.073Z" fill="black"/>
<path d="M73.6159 99.7102C73.9749 97.3109 74.5963 93.1452 72.0613 89.2854C69.8146 85.8667 66.396 84.68 65.1262 84.2604C60.3008 82.6632 55.4923 83.9531 55.4777 84.5633C55.4653 85.0939 59.1017 84.5554 62.9141 86.9748C66.2174 89.0712 67.7585 92.1893 68.5694 93.8246C69.184 95.0674 70.7274 98.5243 70.6119 103.193C70.5524 105.578 70.0735 107.525 69.6506 108.838C70.9775 107.129 72.9717 104.017 73.6158 99.7099L73.6159 99.7102Z" fill="black"/>
<path d="M70.1329 114.963C71.3129 111.488 72.6398 110.646 73.7368 107.396C74.2068 106.005 74.6499 104.125 74.6981 101.75C74.1934 102.993 73.3678 104.907 72.1755 107.154C69.2412 112.691 68.0544 112.777 66.8903 116.043C66.1781 118.043 66.0547 120.899 65.8102 126.613C65.6475 130.387 65.8001 131.308 65.4501 133.7C64.96 137.044 64.0111 139.685 63.2876 141.387C64.2915 139.912 65.476 137.864 66.4103 135.261C67.2717 132.862 67.6677 130.7 67.8516 129.015C68.5156 130.599 69.2357 132.802 69.5341 135.502C69.9715 139.486 69.2851 142.755 68.6928 144.751C69.7057 143.011 70.9059 140.355 70.9743 137.063C71.0191 134.923 70.5413 134.598 69.773 129.857C69.1493 126.006 68.7803 123.63 69.0529 120.489C69.1639 119.2 69.3412 117.299 70.133 114.963L70.1329 114.963Z" fill="black"/>
<path d="M30.6163 79.0502C26.4628 81.1343 24.4091 84.4118 23.2884 86.2569C21.8493 88.6292 21.1382 90.8446 20.7658 92.3834C21.5734 90.7099 23.0439 88.3333 25.6909 86.7382C25.9847 86.5599 26.2113 86.4488 26.4513 86.3299C26.7082 86.2009 32.9792 83.0817 35.9147 82.1841C41.5588 80.4602 48.8462 82.6855 51.1568 83.4572C50.2371 82.3591 46.9631 78.7251 41.3075 77.6279C39.8561 77.3453 35.3562 76.6723 30.6163 79.0502Z" fill="black"/>
<path d="M22.9295 91.4203C21.4545 93.289 21.9469 94.423 20.4069 98.988C18.7894 103.783 17.6117 104.407 17.4042 107.276C17.2034 110.04 18.0828 112.365 18.8455 113.881C19.3469 110.217 19.9313 107.197 20.4069 104.992C21.2975 100.861 21.865 99.3268 22.0894 98.7468C23.3972 95.3381 24.9674 93.0622 25.4532 92.3803C26.8632 90.3961 28.3078 88.9346 29.4172 87.9362C27.4319 88.3018 24.7187 89.1523 22.9295 91.4203Z" fill="black"/>
<path d="M78.9625 91.2997C78.017 89.947 77.3372 89.3649 73.738 85.9552C71.2647 83.6109 69.3096 81.7276 68.1533 80.6106C68.5919 81.3408 69.3142 82.4792 70.3158 83.7927C71.0169 84.7135 72.0062 85.9205 75.5404 89.5568C78.4431 92.5448 78.5488 92.5247 78.9637 93.2202C80.3534 95.5487 80.4275 97.875 80.4656 99.7662C80.5172 102.303 80.1022 103.157 78.6037 110.516C77.7097 114.907 77.5863 115.935 77.8219 117.363C78.2672 120.045 79.6389 122.054 80.7045 123.309C80.1358 121.914 79.4875 119.833 79.5032 117.303C79.5212 114.471 80.3568 113.395 81.2451 109.796C81.9877 106.786 82.8211 103.415 82.2064 99.4072C82.0236 98.2216 81.3741 94.7469 78.9625 91.3L78.9625 91.2997Z" fill="black"/>
<path d="M90.9134 106.975C91.4036 105.351 92.2179 102.58 92.2347 99.168C92.2426 97.3644 92.2235 94.2889 90.5523 90.9397C89.6706 89.172 88.6152 87.8988 87.8491 87.0968C89.5484 90.1073 90.2404 92.8274 90.5523 94.6042C91.2892 98.8048 90.6812 102.183 90.4928 103.133C89.8916 106.147 89.1255 106.646 88.5714 110.16C88.3303 111.685 88.2865 112.96 88.2114 115.446C88.1474 117.548 88.1071 120.434 88.2114 123.913C88.8171 122.657 89.5697 120.675 89.5921 118.208C89.6134 116.016 89.0392 115.367 89.1109 113.224C89.1906 110.842 89.9454 110.183 90.9134 106.975Z" fill="black"/>
<path d="M98.181 93.7606C97.7694 97.2163 97.388 100.741 97.0392 104.33C96.7486 107.335 96.4873 110.297 96.2596 113.219C97.1154 110.905 98.0071 107.812 98.4221 104.09C98.8843 99.9264 98.5949 96.3695 98.181 93.7606Z" fill="black"/>
<path d="M104.668 91.3601C104.248 89.5699 103.003 88.4897 102.926 88.538C102.85 88.5851 103.75 89.7976 103.887 91.7201C103.888 91.7347 103.888 91.7448 103.89 91.7582C103.991 93.2792 103.804 94.3829 103.768 94.6621C103.678 95.3766 103.861 96.4971 105.089 98.266C104.885 97.5639 104.636 96.4792 104.608 95.1434C104.57 93.3162 104.982 92.7005 104.668 91.3601Z" fill="black"/>
<path d="M103.706 97.4877C103.809 98.1842 103.928 99.2745 103.886 100.61C103.834 102.269 103.57 103.093 103.346 104.875C103.083 106.952 103.246 107.4 103.106 109.259C102.995 110.728 102.71 112.871 101.904 115.504C103.331 113.397 103.825 111.577 104.006 110.279C104.288 108.265 103.777 107.787 104.187 105.295C104.536 103.167 105.054 102.619 104.969 101.092C104.88 99.5407 104.243 98.3024 103.706 97.488L103.706 97.4877Z" fill="black"/>
<path d="M100.762 78.2089C98.8074 76.3683 96.693 75.6325 95.5379 75.3263C97.1026 76.6543 98.8747 78.3571 100.644 80.4914C102.29 82.479 103.567 84.3937 104.548 86.0761C104.442 84.9937 103.939 81.2012 100.762 78.2089Z" fill="black"/>
<path d="M61.6363 60.9545C62.3071 59.9001 63.0171 58.6214 63.6643 57.1263C64.4405 55.3249 64.9284 53.6628 65.2402 52.2618C64.4831 53.5741 63.7002 55.122 62.9879 56.9009C62.408 58.3501 61.9706 59.7151 61.6363 60.9545Z" fill="black"/>
<path d="M66.1847 51.7659C65.9357 52.5623 65.7102 53.343 65.5094 54.1091C66.1477 53.0031 66.8072 51.6953 67.4005 50.1901C68.2059 48.151 68.6848 46.2744 68.9764 44.6951C67.9714 46.7892 67.0068 49.1492 66.1847 51.7659Z" fill="black"/>
<path d="M64.0684 64.4691C64.7549 63.8859 65.5524 63.1018 66.3207 62.0811C67.4558 60.5747 68.1041 59.1109 68.4821 58.0275C67.7486 59.0538 67.0128 60.1048 66.2747 61.1804C65.5154 62.2897 64.7807 63.3856 64.0684 64.4691Z" fill="black"/>
<path d="M60.4648 54.02C60.0913 55.8371 59.7424 57.7293 59.4295 59.6945C59.1883 61.2009 58.9797 62.6736 58.7991 64.1082C59.2354 62.9215 59.6583 61.5172 59.9701 59.9188C60.4098 57.6609 60.5052 55.6475 60.4648 54.02Z" fill="black"/>
<path d="M58.6185 53.3423C58.8977 50.3721 58.2057 48.0268 57.6729 46.2255C57.1771 44.5498 56.5894 43.2151 56.1418 42.3066C56.7543 44.7215 57.3061 47.8059 57.4026 51.4044C57.4811 54.3195 57.2433 56.8903 56.9068 59.0171C58.1429 56.665 58.5007 54.5997 58.6185 53.3423Z" fill="black"/>
<path d="M64.0225 46.3619C63.7589 47.5755 63.4852 49.1615 63.3472 51.0458C63.963 49.7413 64.5979 48.143 65.1026 46.272C65.6949 44.0837 65.9506 42.1142 66.0482 40.5056C65.8261 40.933 65.5356 41.5297 65.2372 42.261C64.5575 43.93 64.2614 45.2616 64.0225 46.3619Z" fill="black"/>
<path d="M117.85 49.9225C117.587 47.5715 116.467 38.5008 112.084 27.4906C111.064 24.9276 110.096 22.8357 109.381 21.3641C109.347 20.4197 109.189 19.2688 108.75 18.0307C107.346 14.0767 104.067 12.0902 102.895 11.4545C102.509 10.6088 101.693 9.12931 100.102 7.85058C97.8175 6.01444 95.3621 5.74412 94.4278 5.68917C92.5288 3.65674 90.742 2.82896 89.4734 2.44531C87.819 1.94729 87.34 2.29613 84.8791 1.72522C81.8799 1.02866 81.9729 0.368006 79.9248 0.104438C77.8553 -0.162516 77.511 0.479073 73.8881 0.734803C71.766 0.883982 71.7492 0.674233 69.0237 0.734803C65.8349 0.805466 63.8203 0.850332 61.7262 1.4549C60.1974 1.89572 57.6479 2.91867 54.9694 5.59837C50.6936 6.93089 47.5554 8.68286 45.5115 10.012C41.5811 12.5683 39.0655 15.2748 35.3315 19.2902C32.6204 22.2076 30.5319 24.7706 29.1154 26.5877C27.8165 27.4895 25.9927 28.9846 24.3416 31.2715C22.3462 34.0342 21.4904 36.7206 21.0978 38.3884C20.2341 39.2846 19.0844 40.5532 17.8539 42.1718C15.503 45.2651 14.0145 48.1099 14.1604 48.2084C14.3388 48.3261 16.5327 44.1189 21.3671 40.3714C22.3991 39.5728 23.3166 38.9738 23.9806 38.5689C24.667 37.5347 25.7943 36.0542 27.4935 34.6049C28.3471 33.8781 31.2869 31.5035 35.8712 30.4614C37.2127 30.1563 39.235 29.8423 41.7274 30.0116C40.3231 28.9135 39.0175 28.4839 38.1235 28.3011C34.2772 27.507 30.0353 29.5776 27.0427 33.4349C28.1038 31.6448 30.0284 29.0032 33.2587 26.9484C41.0274 22.0075 49.6876 24.686 51.0964 25.147C50.2876 24.2419 49.0538 23.1146 47.313 22.2644C42.6515 19.9874 38.0201 21.4905 36.8624 21.9044C38.0592 21.1551 42.6075 18.4957 47.6727 19.9213C52.0853 21.1641 54.304 24.7792 56.4105 28.2091C59.9774 34.0171 60.8635 39.9168 61.0048 43.9738C61.5948 40.0862 61.9918 34.2839 60.6447 27.4889C59.7026 22.7387 58.1749 18.8523 56.7706 15.9584C57.5793 16.8154 58.6651 18.0772 59.744 19.7418C60.5123 20.9274 63.0674 25.081 63.8874 31.1827C64.0849 32.6555 64.243 34.6902 64.068 37.1286C64.7657 35.4192 65.4073 33.4641 65.8694 31.2735C67.5384 23.3704 66.0152 16.5732 64.6984 12.5351C65.9445 14.7975 67.9466 19.1506 68.2113 24.9664C68.4267 29.7008 67.4037 33.4911 66.5905 35.7767C67.3768 34.5351 68.3605 32.6865 69.0234 30.2817C69.6807 27.887 69.7839 25.8017 69.7435 24.3358C69.9891 25.7895 70.1653 27.5573 70.1035 29.5604C70.0082 32.673 69.3756 35.2573 68.7531 37.128C70.0845 33.8618 71.4417 29.8383 72.4466 25.1464C73.4415 20.4961 73.852 16.3079 73.9777 12.805C74.3119 13.7091 74.6271 14.8307 74.7886 16.1385C75.1475 19.0524 74.5587 21.4541 74.0685 22.8952C74.8357 21.2756 75.6848 19.0871 76.231 16.4087C76.7975 13.6337 76.858 11.212 76.7717 9.38142C77.1541 11.5507 77.4402 14.1652 77.402 17.1285C77.3762 19.1913 77.1979 21.0644 76.9523 22.7132C77.6353 20.5091 78.2612 18.0707 78.7536 15.4157C78.9723 14.2391 79.1507 13.095 79.2942 11.9924C79.4401 14.1617 79.449 16.581 79.2045 19.1991C78.4564 27.2133 75.6813 33.525 73.3482 37.667C75.0206 35.1556 76.8479 32.5645 78.8433 29.9199C81.6037 26.2634 84.3607 22.9343 87.0404 19.9193C85.0046 22.8636 82.9609 25.8964 80.9139 29.0171C79.1484 31.7102 77.4547 34.3686 75.807 37.0011C77.5972 34.2407 80.0154 31.0486 83.257 27.8473C88.1194 23.0443 93.0276 20.0003 96.6786 18.1169C95.5367 19.197 94.3972 20.2794 93.2553 21.3607C94.5575 20.4634 97.0645 18.9952 100.553 18.4781C103.315 18.0676 105.61 18.4153 107.039 18.7484C102.641 18.7518 99.4883 19.888 97.6713 20.7293C94.229 22.3231 91.8049 24.6034 88.9335 27.3054C87.3105 28.8308 86.0935 30.1757 85.3982 30.9475C83.3186 33.2514 81.7124 35.3388 80.5561 36.9439C82.3429 34.6299 84.9238 31.7642 88.4838 29.0162C91.4259 26.746 94.2514 25.1633 96.591 24.0618C94.3062 25.3966 91.5649 27.262 88.754 29.8259C85.7166 32.5987 83.4913 35.3735 81.9074 37.6629C84.596 35.0113 86.9918 32.9061 88.8448 31.3558C93.3021 27.6287 95.1596 26.6585 96.6818 26.0414C98.7478 25.2024 100.578 24.8536 101.816 24.6909C100.131 25.2663 98.0098 26.1816 95.779 27.6643C94.2816 28.6592 93.0578 29.6967 92.0855 30.6377C93.1757 29.9254 94.6518 29.1122 96.4991 28.4751C97.9147 27.9883 99.2057 27.7214 100.283 27.5745C99.0745 28.1016 97.7308 28.7769 96.3185 29.6473C95.1957 30.3382 94.2076 31.0426 93.3452 31.7201C95.1959 30.4672 99.0116 28.2686 104.245 27.9367C106.95 27.7651 109.243 28.1409 110.913 28.5671C108.603 28.6456 105.688 28.9742 102.445 29.9175C97.068 31.4834 93.1456 34.061 90.7342 35.9541C91.9478 35.4864 96.3335 33.9632 101.545 35.6838C106.893 37.4482 109.525 41.4436 110.192 42.5305C109.381 41.807 108.127 40.8513 106.409 40.0976C104.904 39.4369 103.539 39.1487 102.535 39.0174C103.985 39.7072 105.855 40.7818 107.759 42.4408C110.192 44.5596 111.717 46.795 112.624 48.3855C111.796 47.3849 110.591 46.1343 108.93 44.9622C107.543 43.9829 106.22 43.3279 105.147 42.8893C107.421 44.6739 110.869 47.856 113.614 52.7992C117.309 59.4483 117.752 65.716 117.758 68.8344C118.681 61.1634 118.38 54.6737 117.85 49.9212L117.85 49.9225Z" fill="black"/>
<path d="M9.83576 75.6849C11.3275 73.1892 12.0746 71.9432 13.2591 70.4604C15.7031 67.4037 18.1876 65.5867 19.9262 64.3339C23.3407 61.8719 26.3792 60.5281 28.3935 59.65C29.7664 59.0522 30.9486 58.6069 31.8168 58.2995C27.578 58.4151 24.3511 59.4077 22.3589 60.1918C20.0831 61.0857 18.3659 61.7609 16.6844 63.4356C16.1538 63.9628 15.0389 65.6195 12.8103 68.9307C11.3936 71.036 10.9483 71.764 10.6477 72.2641C9.22997 74.6364 8.56259 76.1718 8.48521 76.1382C8.38538 76.0934 9.3601 73.3521 10.8284 70.4637C11.7335 68.6803 13.2803 65.6363 15.9622 62.6267C17.6716 60.7087 20.9837 57.5199 26.4127 55.1498C23.6165 55.7476 21.4314 56.6562 19.9262 57.4021C18.1843 58.2635 16.4411 59.1272 14.7016 60.915C13.3814 62.2711 12.677 63.5262 11.819 65.0585C10.5067 67.3994 10.224 68.6196 9.20554 71.0043C7.84945 74.1799 7.1574 74.8179 5.60161 77.851C4.47098 80.055 3.00161 83.2989 1.72747 87.5791C3.67017 85.6644 5.00262 83.9034 5.87094 82.6247C7.46258 80.2805 7.66335 79.3168 9.8361 75.6851L9.83576 75.6849Z" fill="black"/>
<path d="M12.9915 78.2979C13.4951 76.9183 14.3677 74.98 15.9648 72.8029C14.0928 74.3048 11.5882 76.7376 9.83834 80.3705C8.55067 83.0479 8.56638 84.5194 7.31573 87.1273C6.27819 89.2898 4.38946 92.1927 0.64856 95.055C1.60983 94.7544 2.56995 94.4549 3.53119 94.1543C3.48296 95.1301 3.3248 96.3729 2.90082 97.7582C2.61032 98.7083 2.25475 99.5226 1.91041 100.191C4.83582 97.9299 6.22645 95.664 6.95436 93.975C7.75859 92.1131 7.64528 91.2113 8.93743 88.3904C10.0131 86.0361 10.3911 86.0102 11.2806 83.8857C12.317 81.3979 12.1532 80.5925 12.9911 78.2976L12.9915 78.2979Z" fill="black"/>
<path d="M104.28 51.0653C103.627 50.3934 102.367 49.2897 100.468 48.656C97.2418 47.5814 94.4499 48.6223 93.6444 48.9566C95.3426 48.9712 97.4313 49.1372 99.7663 49.6588C101.498 50.0469 103.011 50.5538 104.28 51.0653Z" fill="black"/>
<path d="M114.011 62.1002C112.457 59.6741 110.478 58.1442 109.045 57.2323C110.287 59.8502 111.675 63.314 112.708 67.5166C113.083 69.0409 113.955 72.8804 114.213 77.9525C114.439 82.3943 114.629 86.155 113.411 90.7976C112.663 93.6466 111.876 94.9554 111.504 98.2228C111.19 100.995 111.387 103.315 111.604 104.846C111.845 103.888 112.223 102.418 112.707 100.632C114.057 95.6618 114.966 92.9597 115.417 91.4008C116.8 86.6012 116.671 82.7429 116.421 75.146C116.104 65.5985 114.615 63.04 114.011 62.0999L114.011 62.1002Z" fill="black"/>
<path d="M41.9154 118.194C40.5481 122.74 40.2587 124.234 39.6575 126.019C38.8465 128.425 37.3334 131.763 34.2388 135.502C38.3823 133.073 40.1545 130.132 40.862 128.729C42.0039 126.463 42.4794 124.008 42.8193 122.257C43.2018 120.288 43.342 118.583 43.4205 117.591C43.5686 115.742 43.5899 114.153 43.5719 112.925C43.1749 114.132 42.5872 115.957 41.9154 118.194Z" fill="black"/>
<path d="M16.552 119.773C16.1101 121.986 16.1628 122.87 15.7243 124.439C15.39 125.632 14.7495 127.301 13.3912 129.181C14.2291 128.563 17.1689 126.245 18.1337 122.032C18.8358 118.962 18.137 116.436 17.7579 115.335C17.4113 116.332 16.9346 117.86 16.5521 119.773L16.552 119.773Z" fill="black"/>
<path d="M5.26444 111.796C5.08385 112.473 4.66997 114.065 4.66322 116.161C4.65649 118.083 4.99748 118.695 4.81464 120.225C4.62957 121.763 4.06649 122.97 3.60999 123.763C5.19824 122.302 5.9565 120.812 6.3199 119.924C7.07253 118.089 7.11403 116.454 7.14768 115.182C7.19928 113.233 6.88746 112.791 6.92223 110.968C6.95812 109.101 7.31928 107.605 7.59971 106.678C6.24362 108.703 5.59531 110.554 5.26443 111.796L5.26444 111.796Z" fill="black"/>
<path d="M46.7307 130.687C45.922 132.474 45.369 134.006 45 135.127C44.3506 137.103 43.8941 138.494 43.7202 140.394C43.5576 142.173 43.7135 143.646 43.8717 144.608C44.3394 142.813 45.0337 141.582 45.6024 140.77C46.0656 140.109 46.5221 139.62 47.3331 138.437C47.904 137.603 48.3336 136.89 48.6128 136.404C48.2315 135.759 47.8266 134.954 47.4845 133.995C47.0291 132.733 46.8238 131.589 46.7307 130.687Z" fill="black"/>
<path d="M32.6579 113.978C32.0836 115.451 31.9299 116.421 31.6046 117.665C31.2625 118.971 30.6692 120.818 29.5722 123.009C30.6703 121.662 32.1598 119.503 33.185 116.537C33.968 114.272 34.2349 112.249 34.3134 110.741C33.8547 111.453 33.2142 112.552 32.6579 113.978Z" fill="black"/>
<path d="M84.134 114.957C84.1441 116.833 84.4828 117.517 84.6611 119.096C84.8182 120.497 84.844 122.557 84.134 125.192C84.6387 124.358 85.2949 123.048 85.563 121.354C85.8423 119.595 85.4441 119.061 85.4878 116.387C85.5215 114.326 85.7884 112.757 86.015 111.421C86.3201 109.625 86.7205 108.012 87.1434 106.604C86.2988 107.535 85.3398 108.881 84.7341 110.668C84.1317 112.454 84.1284 113.953 84.134 114.957Z" fill="black"/>
<path d="M87.0715 92.7556C86.5712 91.3546 85.4877 88.9363 83.0816 86.5079C84.468 89.0226 86.0036 92.4403 86.9951 96.6667C87.5738 99.1366 87.8554 101.401 87.9731 103.364C88.0629 102.504 88.1515 101.285 88.1246 99.8265C88.0875 97.9241 88.0417 95.4768 87.0715 92.7556Z" fill="black"/>
<path d="M95.5738 122.033C95.3405 122.454 94.0595 124.787 93.0916 127.075C92.2649 129.027 91.2756 131.87 90.6823 135.58C91.5571 133.588 92.7517 131.008 94.2951 128.055C95.834 125.107 96.5384 124.049 97.456 121.959C98.3454 119.933 99.3089 117.226 99.9382 113.83C99.5456 114.705 98.9174 116.055 98.0571 117.668C97.0521 119.554 96.507 120.344 95.5738 122.032L95.5738 122.033Z" fill="black"/>
<path d="M51.0953 131.063C50.8878 128.186 51 128.193 50.7947 126.247C50.4986 123.444 50.1946 122.746 50.1935 120.904C50.1924 119.108 50.4784 117.643 50.7207 116.689C50.3864 117.638 49.9568 119.122 49.8166 120.98C49.7471 121.893 49.8693 123.457 50.1172 126.549C50.4683 130.939 50.466 130.874 50.493 131.291C50.6523 133.66 50.6366 134.086 50.7936 135.43C51.0056 137.232 51.1873 137.747 51.3948 139.193C51.5799 140.476 51.7694 142.369 51.6954 144.762C51.9265 141.566 51.8289 138.999 51.6954 137.237C51.5328 135.078 51.3354 134.388 51.0954 131.064L51.0953 131.063Z" fill="black"/>
<path d="M15.7251 109.766C15.9056 107.703 16.1098 106.025 16.2522 104.95C15.4099 106.935 15.0622 108.588 14.8984 109.692C14.4262 112.863 15.0588 114.256 13.8452 116.013C13.2585 116.862 12.8357 116.934 11.8879 118.346C11.3865 119.094 10.8391 119.923 10.5341 121.131C10.2402 122.292 10.2996 123.293 10.3826 123.916C13.7141 120.978 14.8133 118.298 15.1989 116.391C15.5029 114.881 15.3694 113.832 15.7249 109.766L15.7251 109.766Z" fill="black"/>
<path d="M26.1857 49.7071C27.4879 49.4334 28.9225 49.1956 30.4759 49.0296C31.6435 48.904 32.7495 48.8356 33.7869 48.8042C33.0926 48.5451 31.9912 48.2377 30.626 48.277C28.4512 48.3398 26.8757 49.2483 26.1857 49.7071Z" fill="black"/>
<path d="M26.7887 46.3217C25.5313 46.7076 23.094 47.4568 20.7687 49.4073C19.7749 50.2407 19.1031 51.0416 17.3824 52.4177C16.1105 53.4351 14.9933 54.1866 14.2216 54.6756C15.2199 54.4277 16.687 53.9488 18.2114 52.9449C19.8434 51.8693 20.3953 50.9462 21.6741 49.8593C23.6807 48.1533 25.7357 47.5274 27.4698 46.9991C33.4337 45.1831 38.7355 47.2032 38.7579 47.0742C38.7781 46.9385 32.9691 44.4238 26.7887 46.3217Z" fill="black"/>
<path d="M20.6926 75.0704C18.4852 76.6879 17.6518 78.8392 17.3816 79.6613C18.2419 78.7382 19.2166 77.7747 20.3159 76.8011C21.8335 75.4573 23.3151 74.3391 24.6813 73.4148C23.8255 73.5505 22.2608 73.9207 20.6926 75.0704Z" fill="black"/>
<path d="M74.8794 116.387C74.5159 117.41 74.1738 118.658 73.9753 120.1C73.5962 122.873 73.9147 125.221 74.2759 126.823C74.2939 125.332 74.4576 123.474 74.9781 121.405C75.2933 120.151 75.6836 119.044 76.0806 118.094C75.78 117.96 75.4794 117.827 75.1766 117.692C75.079 117.258 74.9792 116.824 74.8794 116.387Z" fill="black"/>
</svg>
