<svg width="127" height="119" viewBox="0 0 127 119" fill="none" xmlns="http://www.w3.org/2000/svg">
<path d="M63.6951 77.1206C55.582 77.1206 48.9824 70.521 48.9824 62.408C48.9824 54.2949 55.582 47.6953 63.6951 47.6953C71.8081 47.6953 78.4077 54.2949 78.4077 62.408C78.4077 70.521 71.8081 77.1206 63.6951 77.1206ZM63.6951 50.369C57.0571 50.369 51.6573 55.7687 51.6573 62.4067C51.6573 69.0447 57.0571 74.4445 63.6951 74.4445C70.3331 74.4445 75.7328 69.0447 75.7328 62.4067C75.7328 55.7687 70.3331 50.369 63.6951 50.369Z" fill="black"/>
<path d="M63.6951 90.4964C48.2076 90.4964 35.6081 77.8959 35.6081 62.4094C35.6081 46.923 48.2086 34.3225 63.6951 34.3225C79.1815 34.3225 91.782 46.923 91.782 62.4094C91.782 77.8959 79.1815 90.4964 63.6951 90.4964ZM63.6951 36.9957C49.6826 36.9957 38.2813 48.396 38.2813 62.4094C38.2813 76.4228 49.6817 87.8232 63.6951 87.8232C77.7084 87.8232 89.1088 76.4228 89.1088 62.4094C89.1088 48.396 77.7084 36.9957 63.6951 36.9957Z" fill="black"/>
<path d="M98.0309 49.7869C95.2232 49.7869 92.6454 49.2701 90.4425 48.5707C83.6365 46.4087 79.0277 42.1678 78.8347 41.9892C78.294 41.4857 78.2634 40.6393 78.7669 40.0995C79.2694 39.5588 80.1159 39.5282 80.6566 40.0307C80.7006 40.0708 85.079 44.0843 91.3358 46.0485C99.5461 48.6251 107.029 46.6121 113.576 40.065C114.098 39.5424 114.945 39.5424 115.468 40.065C115.99 40.5875 115.99 41.434 115.468 41.9566C109.49 47.9325 103.347 49.7869 98.0309 49.7869Z" fill="black"/>
<path d="M106.496 11.5831C106.496 13.0602 105.298 14.2583 103.82 14.2583C102.343 14.2583 101.145 13.0603 101.145 11.5831C101.145 10.106 102.343 8.90799 103.82 8.90799C105.298 8.90799 106.496 10.106 106.496 11.5831Z" fill="black"/>
<path d="M74.3952 14.258C74.3952 15.7351 73.1972 16.9332 71.7201 16.9332C70.2429 16.9332 69.0449 15.7352 69.0449 14.258C69.0449 12.7809 70.2429 11.5829 71.7201 11.5829C73.1972 11.5829 74.3952 12.7809 74.3952 14.258Z" fill="black"/>
<path d="M52.9949 27.6333C52.9949 29.1104 51.7969 30.3085 50.3198 30.3085C48.8426 30.3085 47.6446 29.1105 47.6446 27.6333C47.6446 26.1562 48.8426 24.9582 50.3198 24.9582C51.7969 24.9582 52.9949 26.1562 52.9949 27.6333Z" fill="black"/>
<path d="M12.87 3.55791C12.87 5.03492 11.672 6.23307 10.1948 6.23307C8.71771 6.23307 7.51968 5.03504 7.51968 3.55791C7.51968 2.08078 8.71771 0.882751 10.1948 0.882751C11.672 0.882751 12.87 2.08078 12.87 3.55791Z" fill="black"/>
<path d="M34.2703 91.8342C34.2703 93.3112 33.0722 94.5094 31.5951 94.5094C30.118 94.5094 28.92 93.3113 28.92 91.8342C28.92 90.3571 30.118 89.159 31.5951 89.159C33.0722 89.159 34.2703 90.3571 34.2703 91.8342Z" fill="black"/>
<path d="M61.0194 113.234C61.0194 114.711 59.8214 115.91 58.3443 115.91C56.8671 115.91 55.6691 114.712 55.6691 113.234C55.6691 111.757 56.8671 110.559 58.3443 110.559C59.8214 110.559 61.0194 111.757 61.0194 113.234Z" fill="black"/>
<path d="M111.847 115.91C111.847 117.387 110.649 118.585 109.172 118.585C107.695 118.585 106.497 117.387 106.497 115.91C106.497 114.433 107.695 113.235 109.172 113.235C110.649 113.235 111.847 114.433 111.847 115.91Z" fill="black"/>
<path d="M20.8945 115.91C20.8945 117.387 19.6965 118.585 18.2193 118.585C16.7422 118.585 15.5442 117.387 15.5442 115.91C15.5442 114.433 16.7422 113.235 18.2193 113.235C19.6965 113.235 20.8945 114.433 20.8945 115.91Z" fill="black"/>
<path d="M79.744 85.1475C79.3858 85.1475 79.0285 85.0042 78.7648 84.7214C78.2613 84.1807 78.2919 83.3342 78.8326 82.8317C79.0256 82.6521 83.6334 78.4113 90.4404 76.2502C96.8145 74.2258 106.33 73.7299 115.465 82.8652C115.988 83.3878 115.988 84.2343 115.465 84.7568C114.944 85.2794 114.096 85.2794 113.574 84.7568C107.003 78.1868 99.4915 76.1816 91.2506 78.7993C85.011 80.7807 80.6984 84.7502 80.6556 84.7903C80.3976 85.0292 80.0708 85.1475 79.744 85.1475Z" fill="black"/>
<path d="M47.6461 85.1475C47.3041 85.1475 46.9611 85.0167 46.7003 84.7558C40.153 78.2086 32.6697 76.1947 24.4601 78.7723C18.2034 80.7356 13.824 84.75 13.781 84.7901C13.2403 85.2916 12.3938 85.2611 11.8913 84.7194C11.3887 84.1786 11.4193 83.3331 11.9591 82.8306C12.1521 82.651 16.7599 78.4102 23.5669 76.2491C29.941 74.2247 39.4566 73.7288 48.5917 82.8641C49.1143 83.3867 49.1143 84.2332 48.5917 84.7557C48.3309 85.0166 47.9881 85.1475 47.6461 85.1475Z" fill="black"/>
<path d="M31.1544 49.7869C28.3467 49.7869 25.7689 49.2701 23.566 48.5707C16.759 46.4087 12.1512 42.1678 11.9582 41.9892C11.4175 41.4857 11.3869 40.6393 11.8904 40.0995C12.3939 39.5588 13.2394 39.5282 13.7801 40.0307C13.8355 40.0813 18.2111 44.0872 24.4592 46.0485C32.6696 48.6251 40.1521 46.6121 46.6994 40.065C47.222 39.5424 48.0684 39.5424 48.591 40.065C49.1136 40.5875 49.1136 41.434 48.591 41.9566C42.6134 47.9325 36.471 49.7869 31.1544 49.7869Z" fill="black"/>
<path d="M63.6951 50.3715C62.9566 50.3715 62.3575 49.7725 62.3575 49.0339V35.6586C62.3575 34.9201 62.9566 34.3211 63.6951 34.3211C64.4336 34.3211 65.0326 34.9201 65.0326 35.6586V49.0339C65.0326 49.7724 64.4336 50.3715 63.6951 50.3715Z" fill="black"/>
<path d="M63.6951 90.4964C62.9566 90.4964 62.3575 89.8974 62.3575 89.1589V75.7836C62.3575 75.0451 62.9566 74.446 63.6951 74.446C64.4336 74.446 65.0326 75.045 65.0326 75.7836V89.1589C65.0326 89.8973 64.4336 90.4964 63.6951 90.4964Z" fill="black"/>
<path d="M73.1528 54.2895C72.8107 54.2895 72.4678 54.1587 72.2069 53.8978C71.6844 53.3753 71.6844 52.5288 72.2069 52.0062L81.6642 42.549C82.1858 42.0264 83.0332 42.0264 83.5558 42.549C84.0784 43.0716 84.0784 43.918 83.5558 44.4406L74.0986 53.8978C73.8378 54.1586 73.4958 54.2895 73.1528 54.2895Z" fill="black"/>
<path d="M44.7797 82.6626C44.4376 82.6626 44.0946 82.5318 43.8338 82.2709C43.3112 81.7484 43.3112 80.9019 43.8338 80.3793L53.291 70.9221C53.8136 70.3995 54.6601 70.3995 55.1827 70.9221C55.7053 71.4447 55.7053 72.2911 55.1827 72.8137L45.7255 82.2709C45.4637 82.5318 45.1217 82.6626 44.7797 82.6626Z" fill="black"/>
<path d="M90.4466 63.7473H77.0713C76.3328 63.7473 75.7338 63.1482 75.7338 62.4097C75.7338 61.6712 76.3328 61.0722 77.0713 61.0722H90.4466C91.1851 61.0722 91.7842 61.6712 91.7842 62.4097C91.7842 63.1482 91.1851 63.7473 90.4466 63.7473Z" fill="black"/>
<path d="M50.3193 63.7473H36.944C36.2055 63.7473 35.6064 63.1482 35.6064 62.4097C35.6064 61.6712 36.2055 61.0722 36.944 61.0722H50.3193C51.0578 61.0722 51.6568 61.6712 51.6568 62.4097C51.6568 63.1482 51.0578 63.7473 50.3193 63.7473Z" fill="black"/>
<path d="M82.6105 82.6626C82.2685 82.6626 81.9255 82.5318 81.6647 82.2709L72.2075 72.8137C71.6849 72.2911 71.6849 71.4447 72.2075 70.9221C72.7291 70.3995 73.5765 70.3995 74.0991 70.9221L83.5563 80.3793C84.0789 80.9019 84.0789 81.7484 83.5563 82.2709C83.2955 82.5318 82.9525 82.6626 82.6105 82.6626Z" fill="black"/>
<path d="M54.2373 54.2895C53.8953 54.2895 53.5523 54.1587 53.2915 53.8978L43.8343 44.4406C43.3117 43.918 43.3117 43.0716 43.8343 42.549C44.3569 42.0264 45.2034 42.0264 45.726 42.549L55.1832 52.0062C55.7058 52.5288 55.7058 53.3753 55.1832 53.8978C54.9214 54.1586 54.5794 54.2895 54.2373 54.2895Z" fill="black"/>
<path d="M119.871 109.221C116.184 109.221 113.184 106.221 113.184 102.533V22.2835C113.184 18.5958 116.184 15.5959 119.871 15.5959C123.559 15.5959 126.559 18.5958 126.559 22.2835V102.533C126.559 106.221 123.559 109.221 119.871 109.221ZM119.871 18.2686C117.659 18.2686 115.859 20.0685 115.859 22.2811V102.531C115.859 104.744 117.659 106.543 119.871 106.543C122.084 106.543 123.884 104.744 123.884 102.531V22.2811C123.884 20.0684 122.084 18.2686 119.871 18.2686Z" fill="black"/>
<path d="M7.5187 109.221C3.83101 109.221 0.831055 106.221 0.831055 102.533V22.2835C0.831055 18.5958 3.83101 15.5959 7.5187 15.5959C11.2064 15.5959 14.2064 18.5958 14.2064 22.2835V102.533C14.2064 106.221 11.2064 109.221 7.5187 109.221ZM7.5187 18.2686C5.30606 18.2686 3.50621 20.0685 3.50621 22.2811V102.531C3.50621 104.744 5.30613 106.543 7.5187 106.543C9.73127 106.543 11.5312 104.744 11.5312 102.531V22.2811C11.5312 20.0684 9.73127 18.2686 7.5187 18.2686Z" fill="black"/>
<path d="M69.0463 106.548H28.9214C28.1829 106.548 27.5839 105.949 27.5839 105.21C27.5839 104.472 28.1829 103.873 28.9214 103.873H69.0463C69.7848 103.873 70.3839 104.472 70.3839 105.21C70.3839 105.949 69.7849 106.548 69.0463 106.548Z" fill="black"/>
<path d="M93.1199 114.572H69.0444C68.3059 114.572 67.7069 113.973 67.7069 113.235C67.7069 112.496 68.3059 111.897 69.0444 111.897H93.1199C93.8583 111.897 94.4574 112.496 94.4574 113.235C94.4574 113.973 93.8584 114.572 93.1199 114.572Z" fill="black"/>
<path d="M34.2703 28.9712C29.1076 28.9712 24.9077 24.7713 24.9077 19.6086C24.9077 14.4459 29.1076 10.246 34.2703 10.246C39.433 10.246 43.6328 14.4459 43.6328 19.6086C43.6328 24.7713 39.433 28.9712 34.2703 28.9712ZM34.2703 12.921C30.5826 12.921 27.5826 15.9209 27.5826 19.6086C27.5826 23.2963 30.5826 26.2963 34.2703 26.2963C37.958 26.2963 40.9579 23.2963 40.9579 19.6086C40.9579 15.9209 37.958 12.921 34.2703 12.921Z" fill="black"/>
<path d="M93.1198 103.872C89.4321 103.872 86.4322 100.872 86.4322 97.1845C86.4322 93.4968 89.4321 90.4969 93.1198 90.4969C96.8075 90.4969 99.8075 93.4968 99.8075 97.1845C99.8075 100.872 96.8075 103.872 93.1198 103.872ZM93.1198 93.172C90.9072 93.172 89.1073 94.972 89.1073 97.1845C89.1073 99.3971 90.9073 101.197 93.1198 101.197C95.3324 101.197 97.1323 99.3971 97.1323 97.1845C97.1323 94.972 95.3324 93.172 93.1198 93.172Z" fill="black"/>
<path d="M91.782 28.9712C88.832 28.9712 86.4319 26.5713 86.4319 23.6211C86.4319 20.6709 88.8318 18.271 91.782 18.271C94.7322 18.271 97.1321 20.6709 97.1321 23.6211C97.1321 26.5713 94.7322 28.9712 91.782 28.9712ZM91.782 20.9462C90.3069 20.9462 89.1069 22.1461 89.1069 23.6213C89.1069 25.0966 90.3068 26.2965 91.782 26.2965C93.2572 26.2965 94.4572 25.0966 94.4572 23.6213C94.4572 22.1461 93.2572 20.9462 91.782 20.9462Z" fill="black"/>
</svg>
