<svg width="179" height="113" viewBox="0 0 179 113" fill="none" xmlns="http://www.w3.org/2000/svg">
<path d="M124.706 41.7073L120.121 38.539C107.938 30.1199 93.4772 25.6099 78.6699 25.6099C75.9448 25.6099 73.2461 25.8591 70.606 26.3443C70.1287 26.4322 69.8716 26.958 70.088 27.3947L78.3681 43.9877C78.4926 44.2369 78.7457 44.3956 79.0251 44.3956L123.87 44.3942C125.312 44.3877 125.893 42.5295 124.706 41.7073Z" fill="black"/>
<path d="M64.9224 28.4566C64.7611 28.1222 64.3716 27.9609 64.0227 28.0816C57.3689 30.387 51.2891 34.2543 46.3323 39.4499C45.7002 40.1147 45.8222 41.1861 46.5854 41.6936C49.2475 43.4522 52.3647 44.3925 55.5553 44.3925H71.6381C72.181 44.3925 72.5416 43.8233 72.2951 43.3355C70.7279 40.1738 66.1078 30.8838 64.9224 28.4566Z" fill="black"/>
<path d="M28.8499 92.4572C28.1417 92.4572 27.5647 93.0342 27.5647 93.7423V103.079C27.5647 103.787 28.1418 104.364 28.8499 104.364C29.558 104.364 30.135 103.787 30.135 103.079V93.7423C30.135 93.0342 29.562 92.4572 28.8499 92.4572Z" fill="black"/>
<path d="M40.3246 97.127C39.6164 97.127 39.0394 97.704 39.0394 98.4121V111.704C39.0394 112.413 39.6165 112.99 40.3246 112.99C41.0327 112.99 41.6097 112.413 41.6097 111.704V98.4121C41.6097 97.704 41.034 97.127 40.3246 97.127Z" fill="black"/>
<path d="M51.7993 94.5487C51.0912 94.5487 50.5142 95.1257 50.5142 95.8339V107.143C50.5142 107.852 51.0912 108.429 51.7993 108.429C52.5074 108.429 53.0845 107.852 53.0845 107.143V95.8339C53.0845 95.1218 52.5088 94.5487 51.7993 94.5487Z" fill="black"/>
<path d="M126.281 92.4572C125.573 92.4572 124.996 93.0342 124.996 93.7423V103.079C124.996 103.787 125.573 104.364 126.281 104.364C126.989 104.364 127.566 103.787 127.566 103.079V93.7423C127.566 93.0342 126.989 92.4572 126.281 92.4572Z" fill="black"/>
<path d="M137.756 97.127C137.047 97.127 136.47 97.704 136.47 98.4121V111.704C136.47 112.413 137.047 112.99 137.756 112.99C138.464 112.99 139.041 112.413 139.041 111.704V98.4121C139.041 97.704 138.464 97.127 137.756 97.127Z" fill="black"/>
<path d="M149.23 94.5487C148.522 94.5487 147.945 95.1257 147.945 95.8339V107.143C147.945 107.852 148.522 108.429 149.23 108.429C149.938 108.429 150.515 107.852 150.515 107.143V95.8339C150.515 95.1218 149.942 94.5487 149.23 94.5487Z" fill="black"/>
<path d="M175.785 69.0881H175.04L178.5 62.1993C179.334 60.5391 178.867 58.5195 177.388 57.3969C164.22 47.3832 148.582 41.0204 132.164 38.993L131.47 38.9091L114.33 29.0277C105.234 23.7848 94.8772 21.0125 84.3781 21.0125H75.9222C65.6043 21.0125 55.4409 24.5113 47.2854 30.8858C47.1897 30.9632 44.9682 32.7913 43.8967 33.8089L38.5726 38.8681H37.2402L24.4069 23.6811H29.3533L32.742 27.5955C32.9951 27.8893 33.3557 28.0401 33.715 28.0401C34.0127 28.0401 34.313 27.9378 34.5556 27.728C35.092 27.2611 35.151 26.4507 34.6841 25.9143L30.91 21.5591C30.6635 21.2758 30.312 21.1145 29.937 21.1145H1.37374C0.665583 21.1145 0.0885925 21.6916 0.0885925 22.3997C0.0885925 23.1078 0.665616 23.6848 1.37374 23.6848H21.0406L33.8739 38.8719H21.4629L16.9321 29.3393H19.1168C19.825 29.3393 20.402 28.7623 20.402 28.0541C20.402 27.346 19.825 26.769 19.1168 26.769H8.50122C7.79307 26.769 7.21607 27.346 7.21607 28.0541C7.21607 28.7623 7.7931 29.3393 8.50122 29.3393H14.0865L18.6173 38.8719H16.3919C13.6564 38.8719 11.431 41.0973 11.431 43.8327V52.5455L6.72063 55.8581C5.00926 57.0619 3.98902 59.0264 3.98902 61.1194V70.3764C3.98902 70.4026 3.99689 70.4236 3.99689 70.4498C4.00082 70.4865 4.00476 70.5233 4.00738 70.5561C4.01525 70.6216 4.02967 70.6806 4.04803 70.7436C4.0559 70.7619 4.0559 70.7842 4.06246 70.8026L6.03085 76.3734C7.36323 80.1475 10.9474 82.6852 14.9494 82.6852H24.2578V84.1579C24.2578 87.0141 26.5816 89.3353 29.4352 89.3353H51.22C54.0762 89.3353 56.3974 87.0115 56.3974 84.1579V82.6852H121.687V84.1579C121.687 87.0141 124.011 89.3353 126.865 89.3353H148.649C151.506 89.3353 153.827 87.0115 153.827 84.1579V82.6852H168.192C172.194 82.6852 175.778 80.1477 177.11 76.3734L178.385 72.7645C178.683 71.9239 178.55 70.9836 178.036 70.2571C177.518 69.5241 176.677 69.0874 175.784 69.0874L175.785 69.0881ZM172.165 69.0881H166.124L164.376 64.0578C164.237 63.6578 164.299 63.2316 164.542 62.8867C164.784 62.5418 165.17 62.3438 165.592 62.3438H175.551L172.165 69.0881ZM53.8253 84.1573C53.8253 85.5972 52.6543 86.7643 51.2183 86.7643H29.4335C27.9936 86.7643 26.8265 85.5933 26.8265 84.1573V75.8551C26.8265 74.4152 27.9975 73.2481 29.4335 73.2481H51.2183C52.6582 73.2481 53.8253 74.4192 53.8253 75.8551V84.1573ZM151.26 84.1573C151.26 85.5972 150.089 86.7643 148.653 86.7643H126.868C125.428 86.7643 124.261 85.5933 124.261 84.1573V75.8551C124.261 74.4152 125.432 73.2481 126.868 73.2481H148.653C150.093 73.2481 151.26 74.4192 151.26 75.8551V84.1573ZM175.965 71.9091L174.69 75.5181C173.721 78.268 171.11 80.1157 168.195 80.1157H153.83V75.8561C153.83 72.9999 151.506 70.6787 148.653 70.6787H130.33V55.3302C130.33 53.7369 129.79 52.1645 128.806 50.9095L125.975 47.2929C125.538 46.7342 124.73 46.6359 124.172 47.0726C123.613 47.5093 123.515 48.3171 123.951 48.8757L126.783 52.4924C127.415 53.3002 127.76 54.306 127.76 55.3302V70.6787H126.868C124.012 70.6787 121.691 73.0025 121.691 75.8561V80.1157H56.3975V75.8561C56.3975 72.9999 54.0737 70.6787 51.2201 70.6787H29.4352C26.579 70.6787 24.2579 73.0025 24.2579 75.8561V80.1157H14.9495C12.0343 80.1157 9.42331 78.2692 8.4541 75.518L7.09157 71.6587H18.25C18.9582 71.6587 19.5352 71.0816 19.5352 70.3735C19.5352 69.6654 18.9582 69.0884 18.25 69.0884H6.55913V61.1165C6.55913 59.8602 7.17285 58.6786 8.20097 57.9587L13.1293 54.4968H28.8555C29.5636 54.4968 30.1406 53.9198 30.1406 53.2117C30.1406 52.5035 29.5636 51.9265 28.8555 51.9265H14.0055V43.8301C14.0055 42.5122 15.0782 41.4394 16.3961 41.4394H39.0884C39.4189 41.4394 39.7349 41.3149 39.9736 41.0867L45.669 35.6706C46.6709 34.7159 48.8924 32.8905 48.8924 32.8905C56.5745 26.8869 66.1763 23.5821 75.9251 23.5821H84.3811C94.4317 23.5821 104.342 26.2364 113.048 31.2562L130.412 41.2659C130.494 41.3105 130.702 41.4023 130.897 41.4272L131.848 41.5452C147.813 43.5175 163.022 49.7071 175.83 59.4455C175.955 59.5412 176.058 59.6553 176.138 59.7799H165.589C164.341 59.7799 163.166 60.3858 162.442 61.4034C161.718 62.421 161.532 63.7272 161.942 64.9062L163.397 69.0922H158.921C158.213 69.0922 157.636 69.6693 157.636 70.3774C157.636 71.0855 158.213 71.6625 158.921 71.6625H175.787C175.85 71.6625 175.901 71.6888 175.937 71.7399C175.977 71.791 175.987 71.8501 175.966 71.9091L175.965 71.9091Z" fill="black"/>
<path d="M91.1081 51.9264H85.9636C85.2555 51.9264 84.6785 52.5034 84.6785 53.2116C84.6785 53.9197 85.2555 54.4967 85.9636 54.4967H91.1081C91.8163 54.4967 92.3932 53.9197 92.3932 53.2116C92.3932 52.5034 91.8176 51.9264 91.1081 51.9264Z" fill="black"/>
<path d="M77.9548 48.9688C77.2466 48.9688 76.6696 49.5458 76.6696 50.2539V71.9652C76.6696 72.6734 77.2467 73.2504 77.9548 73.2504C78.6629 73.2504 79.2399 72.6734 79.2399 71.9652V50.2539C79.2399 49.5458 78.6669 48.9688 77.9548 48.9688Z" fill="black"/>
<path d="M104.607 97.6977C104.321 97.0472 103.565 96.7535 102.914 97.0407C102.264 97.3266 101.97 98.0832 102.257 98.7337L106.112 107.483C106.325 107.964 106.796 108.25 107.291 108.25C107.465 108.25 107.64 108.214 107.809 108.14C108.46 107.854 108.754 107.098 108.466 106.447L104.607 97.6977Z" fill="black"/>
<path d="M74.9972 95.2436C74.3729 94.9027 73.594 95.1295 73.253 95.7537L68.6631 104.14C68.3222 104.764 68.5491 105.543 69.1733 105.884C69.3673 105.99 69.5811 106.041 69.7896 106.041C70.2447 106.041 70.6853 105.799 70.9174 105.373L75.5073 96.9864C75.8456 96.3635 75.6174 95.5846 74.9972 95.2436Z" fill="black"/>
<path d="M100.978 12.6277H101.015C101.709 12.6277 102.278 12.0769 102.3 11.3792L102.565 1.82178C102.583 1.11363 102.025 0.522199 101.316 0.499908C100.615 0.477615 100.017 1.04021 99.9945 1.74836L99.7296 11.3058C99.7113 12.014 100.269 12.6054 100.978 12.6277Z" fill="black"/>
<path d="M126.482 26.7277C126.743 26.7277 127.007 26.6464 127.235 26.4812L134.975 20.867C135.548 20.4526 135.677 19.6474 135.261 19.0717C134.846 18.4986 134.041 18.3701 133.466 18.7858L125.726 24.4C125.153 24.8144 125.024 25.6196 125.44 26.1953C125.693 26.5441 126.081 26.7277 126.482 26.7277Z" fill="black"/>
</svg>
